<?xml version="1.0" encoding="UTF-8" standalone="no"?>
<!-- Created with Inkscape (http://www.inkscape.org/) -->

<svg
   xmlns:dc="http://purl.org/dc/elements/1.1/"
   xmlns:cc="http://creativecommons.org/ns#"
   xmlns:rdf="http://www.w3.org/1999/02/22-rdf-syntax-ns#"
   xmlns:svg="http://www.w3.org/2000/svg"
   xmlns="http://www.w3.org/2000/svg"
   xmlns:sodipodi="http://sodipodi.sourceforge.net/DTD/sodipodi-0.dtd"
   xmlns:inkscape="http://www.inkscape.org/namespaces/inkscape"
   width="266.29315"
   height="127.82058"
   viewBox="0 0 266.29315 127.82058"
   id="svg7010"
   version="1.1"
   inkscape:version="0.91 r13725"
   sodipodi:docname="logo.svg">
  <defs
     id="defs7012">
    <clipPath
       clipPathUnits="userSpaceOnUse"
       id="clipPath46-8-7">
      <path
         d="m 137.008,489.26 321.26,0 0,154.205 -321.26,0 0,-154.205 z"
         id="path48-8-5"
         inkscape:connector-curvature="0" />
    </clipPath>
  </defs>
  <sodipodi:namedview
     id="base"
     pagecolor="#ffffff"
     bordercolor="#666666"
     borderopacity="1.0"
     inkscape:pageopacity="0.0"
     inkscape:pageshadow="2"
     inkscape:zoom="1.4"
     inkscape:cx="162.1208"
     inkscape:cy="36.465068"
     inkscape:document-units="px"
     inkscape:current-layer="layer1"
     showgrid="false"
     units="px"
     fit-margin-top="0"
     fit-margin-left="0"
     fit-margin-right="0"
     fit-margin-bottom="0"
     inkscape:window-width="1301"
     inkscape:window-height="744"
     inkscape:window-x="65"
     inkscape:window-y="181"
     inkscape:window-maximized="1" />
  <metadata
     id="metadata7015">
    <rdf:RDF>
      <cc:Work
         rdf:about="">
        <dc:format>image/svg+xml</dc:format>
        <dc:type
           rdf:resource="http://purl.org/dc/dcmitype/StillImage" />
        <dc:title></dc:title>
      </cc:Work>
    </rdf:RDF>
  </metadata>
  <g
     inkscape:label="Layer 1"
     inkscape:groupmode="layer"
     id="layer1"
     transform="translate(-221.13914,-371.30906)">
    <g
       transform="matrix(0.82890306,0,0,-0.82890306,107.57279,904.67875)"
       id="g11715"
       style="display:inline">
      <g
         id="g11717"
         clip-path="url(#clipPath46-8-7)">
        <g
           id="g11719"
           transform="translate(291.213,643.4645)">
          <path
             d="m 0,0 -1.169,0 c -20.539,0 -41.483,-1.69 -62.25,-5.024 l -0.984,-0.158 0,-0.997 0,-21.873 c -22.605,-3.684 -44.678,-9.212 -65.624,-16.435 l -0.788,-0.272 0,-0.834 0,-22.036 c -10.402,-3.614 -18.063,-6.807 -22.697,-8.869 l -0.693,-0.309 0,-0.759 0,-75.47 0,-1.169 1.169,0 151.867,0 1.169,0 0,1.169 L 0,-24.037 0,-1.169 0,0 Z m -1.169,-1.169 0,-22.868 0,-128.999 -151.867,0 0,75.47 c 4.405,1.96 12.399,5.314 23.39,9.105 l 0,22.868 c 16.243,5.601 39.022,12.149 66.412,16.546 l 0,22.868 c 18.738,3.008 39.631,5.01 62.065,5.01"
             style="fill:#ffffff;fill-opacity:1;fill-rule:nonzero;stroke:none"
             id="path11721"
             inkscape:connector-curvature="0" />
        </g>
        <g
           id="g11723"
           transform="translate(161.5675,575.0034)">
          <path
             d="m 0,0 c 16.242,5.601 39.023,12.149 66.411,16.546 l 0,22.868 C 39.023,35.018 16.242,28.47 0,22.868 L 0,0 Z"
             style="fill:#30b5e4;fill-opacity:1;fill-rule:nonzero;stroke:none"
             id="path11725"
             inkscape:connector-curvature="0" />
        </g>
        <g
           id="g11727"
           transform="translate(227.9793,637.286)">
          <path
             d="m 0,0 0,-22.868 c 18.738,3.008 39.63,5.009 62.065,5.009 l 0,22.869 C 39.63,5.01 18.738,3.008 0,0"
             style="fill:#30b5e4;fill-opacity:1;fill-rule:nonzero;stroke:none"
             id="path11729"
             inkscape:connector-curvature="0" />
        </g>
        <g
           id="g11731"
           transform="translate(227.9793,591.5494)">
          <path
             d="m 0,0 c -27.39,-4.397 -50.169,-10.945 -66.412,-16.546 -10.991,-3.79 -18.986,-7.144 -23.391,-9.105 l 0,-75.471 151.868,0 0,106.132 C 39.63,5.01 18.738,3.008 0,0"
             style="fill:#0b1f3e;fill-opacity:1;fill-rule:nonzero;stroke:none"
             id="path11733"
             inkscape:connector-curvature="0" />
        </g>
        <g
           id="g11735"
           transform="translate(227.9793,591.5494)">
          <path
             d="m 0,0 c 18.738,3.008 39.63,5.01 62.065,5.01 l 0,22.868 C 39.63,27.878 18.738,25.876 0,22.868 L 0,0 Z"
             style="fill:#0067a0;fill-opacity:1;fill-rule:nonzero;stroke:none"
             id="path11737"
             inkscape:connector-curvature="0" />
        </g>
        <g
           id="g11739"
           transform="translate(189.325,550.4685)">
          <path
             d="M 0,0 C 1.376,0 2.146,0.983 2.146,2.235 2.146,3.522 1.376,4.381 0,4.381 l -2.915,0 L -2.915,0 0,0 Z m 0.304,-5.703 c 1.305,0 2.253,0.983 2.253,2.27 0,1.27 -1.162,2.199 -2.557,2.199 l -2.95,0 0,-4.469 3.254,0 z M -4.255,5.274 c 0,0.179 0.143,0.34 0.34,0.34 l 3.915,0 c 2.181,0 3.666,-1.413 3.666,-3.29 0,-1.376 -0.913,-2.378 -1.753,-2.861 0.948,-0.393 2.145,-1.269 2.145,-2.914 0,-2.002 -1.591,-3.45 -3.897,-3.45 l -4.076,0 c -0.197,0 -0.34,0.16 -0.34,0.339 l 0,11.836 z"
             style="fill:#ffffff;fill-opacity:1;fill-rule:nonzero;stroke:none"
             id="path11741"
             inkscape:connector-curvature="0" />
        </g>
        <g
           id="g11743"
           transform="translate(196.0658,555.7426)">
          <path
             d="m 0,0 c 0,0.178 0.143,0.34 0.34,0.34 l 0.696,0 c 0.18,0 0.34,-0.162 0.34,-0.34 l 0,-10.977 5.149,0 c 0.197,0 0.34,-0.162 0.34,-0.34 l 0,-0.518 c 0,-0.18 -0.143,-0.34 -0.34,-0.34 l -6.185,0 c -0.197,0 -0.34,0.16 -0.34,0.34 L 0,0 Z"
             style="fill:#ffffff;fill-opacity:1;fill-rule:nonzero;stroke:none"
             id="path11745"
             inkscape:connector-curvature="0" />
        </g>
        <g
           id="g11747"
           transform="translate(213.9447,547.8222)">
          <path
             d="m 0,0 c -0.876,1.949 -1.734,3.916 -2.61,5.864 l -0.143,0 L -5.363,0 0,0 Z m -8.492,-3.79 5.435,12.032 c 0.054,0.107 0.142,0.197 0.304,0.197 l 0.178,0 c 0.161,0 0.251,-0.09 0.304,-0.197 L 3.129,-3.79 C 3.236,-4.023 3.093,-4.255 2.825,-4.255 l -0.715,0 c -0.161,0 -0.269,0.107 -0.304,0.197 l -1.323,2.949 -6.347,0 -1.305,-2.949 c -0.036,-0.09 -0.144,-0.197 -0.304,-0.197 l -0.715,0 c -0.269,0 -0.411,0.232 -0.304,0.465"
             style="fill:#ffffff;fill-opacity:1;fill-rule:nonzero;stroke:none"
             id="path11749"
             inkscape:connector-curvature="0" />
        </g>
        <g
           id="g11751"
           transform="translate(216.0727,555.6176)">
          <path
             d="m 0,0 c -0.107,0.233 0.036,0.465 0.304,0.465 l 0.715,0 c 0.162,0 0.269,-0.108 0.304,-0.197 l 4.451,-10.012 0.073,0 4.451,10.012 c 0.036,0.089 0.161,0.197 0.304,0.197 l 0.715,0 c 0.269,0 0.411,-0.232 0.304,-0.465 L 6.186,-12.033 C 6.132,-12.14 6.025,-12.229 5.883,-12.229 l -0.18,0 c -0.124,0 -0.25,0.089 -0.304,0.196 L 0,0 Z"
             style="fill:#ffffff;fill-opacity:1;fill-rule:nonzero;stroke:none"
             id="path11753"
             inkscape:connector-curvature="0" />
        </g>
        <g
           id="g11755"
           transform="translate(235.5251,547.8222)">
          <path
             d="m 0,0 c -0.876,1.949 -1.734,3.916 -2.61,5.864 l -0.143,0 L -5.363,0 0,0 Z m -8.492,-3.79 5.435,12.032 c 0.054,0.107 0.142,0.197 0.304,0.197 l 0.178,0 c 0.161,0 0.251,-0.09 0.304,-0.197 L 3.129,-3.79 C 3.236,-4.023 3.093,-4.255 2.825,-4.255 l -0.715,0 c -0.161,0 -0.269,0.107 -0.304,0.197 l -1.323,2.949 -6.347,0 -1.305,-2.949 c -0.036,-0.09 -0.144,-0.197 -0.304,-0.197 l -0.715,0 c -0.269,0 -0.411,0.232 -0.304,0.465"
             style="fill:#ffffff;fill-opacity:1;fill-rule:nonzero;stroke:none"
             id="path11757"
             inkscape:connector-curvature="0" />
        </g>
        <g
           id="g11759"
           transform="translate(242.5519,554.8844)">
          <path
             d="m 0,0 -3.111,0 c -0.197,0 -0.34,0.161 -0.34,0.34 l 0,0.518 c 0,0.178 0.143,0.34 0.34,0.34 l 7.58,0 c 0.197,0 0.34,-0.162 0.34,-0.34 l 0,-0.518 C 4.809,0.161 4.666,0 4.469,0 l -3.11,0 0,-10.977 c 0,-0.179 -0.161,-0.34 -0.34,-0.34 l -0.679,0 c -0.179,0 -0.34,0.161 -0.34,0.34 L 0,0 Z"
             style="fill:#ffffff;fill-opacity:1;fill-rule:nonzero;stroke:none"
             id="path11761"
             inkscape:connector-curvature="0" />
        </g>
        <g
           id="g11763"
           transform="translate(249.5069,555.9391)">
          <path
             d="m 0,0 c 0,0.178 0.161,0.322 0.34,0.322 l 0.447,0 8.063,-10.048 0.036,0 0,9.529 c 0,0.179 0.143,0.34 0.34,0.34 l 0.625,0 c 0.178,0 0.34,-0.161 0.34,-0.34 l 0,-12.032 c 0,-0.179 -0.162,-0.321 -0.34,-0.321 l -0.322,0 -8.206,10.243 -0.018,0 0,-9.725 c 0,-0.179 -0.143,-0.34 -0.34,-0.34 l -0.625,0 c -0.179,0 -0.34,0.161 -0.34,0.34 L 0,0 Z"
             style="fill:#ffffff;fill-opacity:1;fill-rule:nonzero;stroke:none"
             id="path11765"
             inkscape:connector-curvature="0" />
        </g>
        <g
           id="g11767"
           transform="translate(262.8089,555.7426)">
          <path
             d="m 0,0 c 0,0.178 0.161,0.34 0.34,0.34 l 0.715,0 C 1.233,0.34 1.394,0.178 1.394,0 l 0,-11.835 c 0,-0.18 -0.161,-0.34 -0.339,-0.34 l -0.715,0 c -0.179,0 -0.34,0.16 -0.34,0.34 L 0,0 Z"
             style="fill:#ffffff;fill-opacity:1;fill-rule:nonzero;stroke:none"
             id="path11769"
             inkscape:connector-curvature="0" />
        </g>
        <g
           id="g11771"
           transform="translate(267.3144,555.6531)">
          <path
             d="m 0,0 c 0,0.233 0.179,0.43 0.429,0.43 l 0.519,0 C 1.181,0.43 1.376,0.233 1.376,0 l 0,-5.059 5.578,5.309 c 0.072,0.09 0.233,0.18 0.34,0.18 l 0.877,0 c 0.321,0 0.499,-0.359 0.214,-0.627 l -5.65,-5.274 5.918,-6.06 c 0.126,-0.126 0.09,-0.555 -0.304,-0.555 l -0.912,0 c -0.124,0 -0.285,0.071 -0.321,0.125 l -5.74,5.99 0,-5.686 c 0,-0.233 -0.195,-0.429 -0.428,-0.429 l -0.519,0 C 0.179,-12.086 0,-11.89 0,-11.657 L 0,0 Z"
             style="fill:#ffffff;fill-opacity:1;fill-rule:nonzero;stroke:none"
             id="path11773"
             inkscape:connector-curvature="0" />
        </g>
        <g
           id="g11775"
           transform="translate(172.9838,526.9691)">
          <path
             d="m 0,0 c 0.09,0.107 0.178,0.233 0.268,0.34 0.179,0.232 0.376,0.375 0.625,0.161 0.126,-0.108 1.431,-1.359 3.022,-1.359 1.448,0 2.396,0.912 2.396,1.967 0,1.233 -1.072,1.966 -3.129,2.824 -1.966,0.859 -3.147,1.663 -3.147,3.701 0,1.216 0.966,3.182 3.809,3.182 1.752,0 3.057,-0.911 3.057,-0.911 C 7.009,9.851 7.223,9.637 7.009,9.297 6.937,9.19 6.865,9.064 6.794,8.957 6.633,8.706 6.454,8.635 6.168,8.796 6.042,8.868 4.916,9.618 3.826,9.618 1.931,9.618 1.359,8.403 1.359,7.653 1.359,6.454 2.271,5.757 3.773,5.131 6.186,4.148 7.741,3.236 7.741,1.162 c 0,-1.859 -1.77,-3.218 -3.861,-3.218 -2.11,0 -3.54,1.233 -3.773,1.448 C -0.036,-0.483 -0.214,-0.34 0,0"
             style="fill:#ffffff;fill-opacity:1;fill-rule:nonzero;stroke:none"
             id="path11777"
             inkscape:connector-curvature="0" />
        </g>
        <g
           id="g11779"
           transform="translate(189.039,537.7857)">
          <path
             d="m 0,0 c 1.806,0 3.11,-0.625 4.326,-1.663 0.143,-0.143 0.162,-0.357 0.018,-0.5 L 3.861,-2.646 c -0.142,-0.179 -0.285,-0.161 -0.464,0.018 -0.93,0.805 -2.199,1.34 -3.416,1.34 -2.823,0 -4.987,-2.378 -4.987,-5.149 0,-2.753 2.164,-5.13 4.987,-5.13 1.557,0 2.469,0.625 3.416,1.34 0.179,0.143 0.322,0.126 0.429,0.053 l 0.536,-0.482 c 0.143,-0.107 0.107,-0.357 -0.018,-0.483 -1.215,-1.179 -2.752,-1.734 -4.344,-1.734 -3.576,0 -6.454,2.844 -6.454,6.419 C -6.454,-2.878 -3.576,0 0,0"
             style="fill:#ffffff;fill-opacity:1;fill-rule:nonzero;stroke:none"
             id="path11781"
             inkscape:connector-curvature="0" />
        </g>
        <g
           id="g11783"
           transform="translate(196.3159,537.2672)">
          <path
             d="m 0,0 c 0,0.178 0.161,0.34 0.34,0.34 l 0.696,0 c 0.197,0 0.34,-0.162 0.34,-0.34 l 0,-5.22 7.259,0 0,5.22 c 0,0.178 0.144,0.34 0.34,0.34 l 0.698,0 c 0.178,0 0.339,-0.162 0.339,-0.34 l 0,-11.835 c 0,-0.18 -0.161,-0.34 -0.339,-0.34 l -0.698,0 c -0.196,0 -0.34,0.16 -0.34,0.34 l 0,5.417 -7.259,0 0,-5.417 c 0,-0.18 -0.143,-0.34 -0.34,-0.34 l -0.696,0 c -0.179,0 -0.34,0.16 -0.34,0.34 L 0,0 Z"
             style="fill:#ffffff;fill-opacity:1;fill-rule:nonzero;stroke:none"
             id="path11785"
             inkscape:connector-curvature="0" />
        </g>
        <g
           id="g11787"
           transform="translate(215.3032,526.1646)">
          <path
             d="M 0,0 C 2.842,0 5.185,2.324 5.185,5.167 5.185,8.01 2.842,10.369 0,10.369 -2.842,10.369 -5.167,8.01 -5.167,5.167 -5.167,2.324 -2.842,0 0,0 m 0,11.621 c 3.576,0 6.437,-2.878 6.437,-6.454 0,-3.575 -2.861,-6.419 -6.437,-6.419 -3.576,0 -6.418,2.844 -6.418,6.419 0,3.576 2.842,6.454 6.418,6.454"
             style="fill:#ffffff;fill-opacity:1;fill-rule:nonzero;stroke:none"
             id="path11789"
             inkscape:connector-curvature="0" />
        </g>
        <g
           id="g11791"
           transform="translate(230.1614,526.1646)">
          <path
             d="M 0,0 C 2.842,0 5.185,2.324 5.185,5.167 5.185,8.01 2.842,10.369 0,10.369 -2.842,10.369 -5.167,8.01 -5.167,5.167 -5.167,2.324 -2.842,0 0,0 m 0,11.621 c 3.576,0 6.437,-2.878 6.437,-6.454 0,-3.575 -2.861,-6.419 -6.437,-6.419 -3.576,0 -6.418,2.844 -6.418,6.419 0,3.576 2.842,6.454 6.418,6.454"
             style="fill:#ffffff;fill-opacity:1;fill-rule:nonzero;stroke:none"
             id="path11793"
             inkscape:connector-curvature="0" />
        </g>
        <g
           id="g11795"
           transform="translate(239.1547,537.2672)">
          <path
             d="m 0,0 c 0,0.178 0.143,0.34 0.34,0.34 l 0.696,0 c 0.18,0 0.34,-0.162 0.34,-0.34 l 0,-10.977 5.149,0 c 0.197,0 0.34,-0.162 0.34,-0.34 l 0,-0.518 c 0,-0.18 -0.143,-0.34 -0.34,-0.34 l -6.185,0 c -0.197,0 -0.34,0.16 -0.34,0.34 L 0,0 Z"
             style="fill:#ffffff;fill-opacity:1;fill-rule:nonzero;stroke:none"
             id="path11797"
             inkscape:connector-curvature="0" />
        </g>
        <g
           id="g11799"
           transform="translate(259.197,526.1646)">
          <path
             d="M 0,0 C 2.842,0 5.185,2.324 5.185,5.167 5.185,8.01 2.842,10.369 0,10.369 -2.842,10.369 -5.167,8.01 -5.167,5.167 -5.167,2.324 -2.842,0 0,0 m 0,11.621 c 3.576,0 6.437,-2.878 6.437,-6.454 0,-3.575 -2.861,-6.419 -6.437,-6.419 -3.576,0 -6.418,2.844 -6.418,6.419 0,3.576 2.842,6.454 6.418,6.454"
             style="fill:#ffffff;fill-opacity:1;fill-rule:nonzero;stroke:none"
             id="path11801"
             inkscape:connector-curvature="0" />
        </g>
        <g
           id="g11803"
           transform="translate(268.1908,537.2672)">
          <path
             d="m 0,0 c 0,0.178 0.143,0.34 0.34,0.34 l 7.044,0 C 7.58,0.34 7.724,0.178 7.724,0 l 0,-0.518 c 0,-0.179 -0.144,-0.34 -0.34,-0.34 l -6.008,0 0,-4.899 5.132,0 c 0.178,0 0.34,-0.161 0.34,-0.34 l 0,-0.518 c 0,-0.179 -0.162,-0.34 -0.34,-0.34 l -5.132,0 0,-4.88 c 0,-0.18 -0.16,-0.34 -0.34,-0.34 l -0.696,0 c -0.197,0 -0.34,0.16 -0.34,0.34 L 0,0 Z"
             style="fill:#ffffff;fill-opacity:1;fill-rule:nonzero;stroke:none"
             id="path11805"
             inkscape:connector-curvature="0" />
        </g>
        <g
           id="g11808"
           transform="translate(159.4667,519.3103)">
          <path
             d="m 0,0 c 1.806,0 3.11,-0.625 4.326,-1.663 0.143,-0.143 0.162,-0.357 0.018,-0.5 -0.16,-0.161 -0.357,-0.34 -0.5,-0.501 -0.161,-0.178 -0.268,-0.161 -0.465,0.018 -0.912,0.805 -2.199,1.394 -3.398,1.394 -2.823,0 -4.969,-2.359 -4.969,-5.131 0,-2.753 2.146,-5.167 4.969,-5.167 1.968,0 3.219,0.751 3.219,0.751 l 0,2.504 -2.055,0 c -0.197,0 -0.34,0.142 -0.34,0.321 l 0,0.661 c 0,0.197 0.143,0.34 0.34,0.34 l 3.092,0 c 0.179,0 0.322,-0.16 0.322,-0.34 l 0,-4.094 c 0,-0.089 -0.071,-0.233 -0.143,-0.285 0,0 -1.824,-1.181 -4.416,-1.181 -3.576,0 -6.454,2.844 -6.454,6.419 C -6.454,-2.878 -3.576,0 0,0"
             style="fill:#ffffff;fill-opacity:1;fill-rule:nonzero;stroke:none"
             id="path11810"
             inkscape:connector-curvature="0" />
        </g>
        <g
           id="g11812"
           transform="translate(172.3398,507.6892)">
          <path
             d="M 0,0 C 2.842,0 5.185,2.324 5.185,5.167 5.185,8.01 2.842,10.369 0,10.369 -2.842,10.369 -5.167,8.01 -5.167,5.167 -5.167,2.324 -2.842,0 0,0 m 0,11.621 c 3.576,0 6.437,-2.878 6.437,-6.454 0,-3.575 -2.861,-6.419 -6.437,-6.419 -3.576,0 -6.418,2.844 -6.418,6.419 0,3.576 2.842,6.454 6.418,6.454"
             style="fill:#ffffff;fill-opacity:1;fill-rule:nonzero;stroke:none"
             id="path11814"
             inkscape:connector-curvature="0" />
        </g>
        <g
           id="g11816"
           transform="translate(179.9924,518.6667)">
          <path
             d="m 0,0 c -0.107,0.233 0.036,0.465 0.304,0.465 l 0.715,0 c 0.162,0 0.269,-0.108 0.304,-0.197 l 4.451,-10.012 0.073,0 4.451,10.012 c 0.036,0.089 0.161,0.197 0.304,0.197 l 0.715,0 c 0.269,0 0.411,-0.232 0.304,-0.465 L 6.186,-12.033 c -0.054,-0.107 -0.16,-0.196 -0.303,-0.196 l -0.18,0 c -0.124,0 -0.25,0.089 -0.304,0.196 L 0,0 Z"
             style="fill:#ffffff;fill-opacity:1;fill-rule:nonzero;stroke:none"
             id="path11818"
             inkscape:connector-curvature="0" />
        </g>
        <g
           id="g11820"
           transform="translate(193.7414,518.7918)">
          <path
             d="m 0,0 c 0,0.178 0.143,0.34 0.34,0.34 l 7.044,0 C 7.58,0.34 7.724,0.178 7.724,0 l 0,-0.518 c 0,-0.179 -0.144,-0.34 -0.34,-0.34 l -6.008,0 0,-4.362 5.132,0 c 0.178,0 0.34,-0.162 0.34,-0.34 l 0,-0.518 c 0,-0.197 -0.162,-0.34 -0.34,-0.34 l -5.132,0 0,-4.559 6.008,0 c 0.196,0 0.34,-0.162 0.34,-0.34 l 0,-0.518 c 0,-0.18 -0.144,-0.34 -0.34,-0.34 l -7.044,0 c -0.197,0 -0.34,0.16 -0.34,0.34 L 0,0 Z"
             style="fill:#ffffff;fill-opacity:1;fill-rule:nonzero;stroke:none"
             id="path11822"
             inkscape:connector-curvature="0" />
        </g>
        <g
           id="g11824"
           transform="translate(209.3856,512.695)">
          <path
             d="M 0,0 C 1.376,0 2.575,1.145 2.575,2.611 2.575,3.969 1.376,5.132 0,5.132 l -3.468,0 L -3.468,0 0,0 Z m -4.881,6.097 c 0,0.178 0.143,0.34 0.34,0.34 l 4.631,0 c 2.145,0 3.897,-1.681 3.897,-3.809 0,-1.645 -1.09,-3.022 -2.646,-3.647 L 3.79,-5.56 c 0.126,-0.233 0,-0.518 -0.304,-0.518 l -0.911,0 c -0.161,0 -0.251,0.089 -0.287,0.16 l -2.378,4.738 -3.414,0 0,-4.559 c 0,-0.179 -0.162,-0.339 -0.34,-0.339 l -0.697,0 c -0.197,0 -0.34,0.16 -0.34,0.339 l 0,11.836 z"
             style="fill:#ffffff;fill-opacity:1;fill-rule:nonzero;stroke:none"
             id="path11826"
             inkscape:connector-curvature="0" />
        </g>
        <g
           id="g11828"
           transform="translate(216.5019,518.9884)">
          <path
             d="m 0,0 c 0,0.178 0.161,0.322 0.34,0.322 l 0.447,0 8.063,-10.048 0.036,0 0,9.529 c 0,0.179 0.143,0.34 0.34,0.34 l 0.625,0 c 0.178,0 0.34,-0.161 0.34,-0.34 l 0,-12.032 c 0,-0.179 -0.162,-0.321 -0.34,-0.321 l -0.322,0 -8.206,10.243 -0.018,0 0,-9.725 c 0,-0.179 -0.143,-0.34 -0.34,-0.34 l -0.625,0 c -0.179,0 -0.34,0.161 -0.34,0.34 L 0,0 Z"
             style="fill:#ffffff;fill-opacity:1;fill-rule:nonzero;stroke:none"
             id="path11830"
             inkscape:connector-curvature="0" />
        </g>
        <g
           id="g11832"
           transform="translate(231.5739,519.0602)">
          <path
             d="m 0,0 c 0.035,0.143 0.178,0.25 0.321,0.25 l 0.287,0 c 0.125,0 0.268,-0.089 0.304,-0.196 l 3.54,-9.852 0.089,0 3.487,9.852 C 8.063,0.161 8.206,0.25 8.331,0.25 l 0.286,0 C 8.76,0.25 8.903,0.143 8.939,0 l 2.306,-12.015 c 0.055,-0.25 -0.054,-0.429 -0.321,-0.429 l -0.715,0 c -0.144,0 -0.287,0.126 -0.323,0.25 l -1.591,9.208 -0.071,0 -3.289,-9.44 C 4.899,-12.534 4.737,-12.622 4.63,-12.622 l -0.322,0 c -0.107,0 -0.267,0.088 -0.303,0.196 l -3.326,9.44 -0.071,0 -1.556,-9.208 c -0.017,-0.124 -0.178,-0.25 -0.321,-0.25 l -0.715,0 c -0.269,0 -0.376,0.179 -0.323,0.429 L 0,0 Z"
             style="fill:#ffffff;fill-opacity:1;fill-rule:nonzero;stroke:none"
             id="path11835"
             inkscape:connector-curvature="0" />
        </g>
        <g
           id="g11837"
           transform="translate(245.3948,518.7918)">
          <path
             d="m 0,0 c 0,0.178 0.143,0.34 0.34,0.34 l 7.044,0 C 7.58,0.34 7.724,0.178 7.724,0 l 0,-0.518 c 0,-0.179 -0.144,-0.34 -0.34,-0.34 l -6.008,0 0,-4.362 5.132,0 c 0.178,0 0.34,-0.162 0.34,-0.34 l 0,-0.518 c 0,-0.197 -0.162,-0.34 -0.34,-0.34 l -5.132,0 0,-4.559 6.008,0 c 0.196,0 0.34,-0.162 0.34,-0.34 l 0,-0.518 c 0,-0.18 -0.144,-0.34 -0.34,-0.34 l -7.044,0 c -0.197,0 -0.34,0.16 -0.34,0.34 L 0,0 Z"
             style="fill:#ffffff;fill-opacity:1;fill-rule:nonzero;stroke:none"
             id="path11839"
             inkscape:connector-curvature="0" />
        </g>
        <g
           id="g11842"
           transform="translate(255.8002,518.9884)">
          <path
             d="m 0,0 c 0,0.178 0.161,0.322 0.34,0.322 l 0.447,0 8.063,-10.048 0.036,0 0,9.529 c 0,0.179 0.143,0.34 0.34,0.34 l 0.625,0 c 0.178,0 0.34,-0.161 0.34,-0.34 l 0,-12.032 c 0,-0.179 -0.162,-0.321 -0.34,-0.321 l -0.322,0 -8.206,10.243 -0.018,0 0,-9.725 c 0,-0.179 -0.143,-0.34 -0.34,-0.34 l -0.625,0 c -0.179,0 -0.34,0.161 -0.34,0.34 L 0,0 Z"
             style="fill:#ffffff;fill-opacity:1;fill-rule:nonzero;stroke:none"
             id="path11844"
             inkscape:connector-curvature="0" />
        </g>
        <g
           id="g11846"
           transform="translate(271.5876,517.9337)">
          <path
             d="M 0,0 -3.111,0 C -3.308,0 -3.45,0.161 -3.45,0.34 l 0,0.518 c 0,0.178 0.142,0.34 0.339,0.34 l 7.58,0 c 0.197,0 0.34,-0.162 0.34,-0.34 l 0,-0.518 C 4.809,0.161 4.666,0 4.469,0 l -3.11,0 0,-10.977 c 0,-0.179 -0.161,-0.34 -0.34,-0.34 l -0.679,0 c -0.179,0 -0.34,0.161 -0.34,0.34 L 0,0 Z"
             style="fill:#ffffff;fill-opacity:1;fill-rule:nonzero;stroke:none"
             id="path11848"
             inkscape:connector-curvature="0" />
        </g>
        <g
           id="g11850"
           transform="translate(458.2677,643.464)">
          <path
             d="m 0,0 -1.169,0 -151.868,0 -1.169,0 0,-1.169 0,-151.866 0,-1.169 1.169,0 151.868,0 1.169,0 0,1.169 L 0,-1.169 0,0 Z m -1.169,-153.035 -151.868,0 0,151.866 151.868,0 0,-151.866 z"
             style="fill:#ffffff;fill-opacity:1;fill-rule:nonzero;stroke:none"
             id="path11852"
             inkscape:connector-curvature="0" />
        </g>
        <path
           d="m 457.099,490.429 -151.868,0 0,151.866 151.868,0 0,-151.866 z"
           style="fill:#0b1f3e;fill-opacity:1;fill-rule:nonzero;stroke:none"
           id="path11854"
           inkscape:connector-curvature="0" />
        <g
           id="g11856"
           transform="translate(335.2878,515.9622)">
          <path
             d="m 0,0 c 0,5.299 -2.57,8.997 -6.903,8.997 -4.713,0 -6.91,-4.44 -6.91,-8.997 0,-5.297 2.571,-8.992 6.91,-8.992 C -2.194,-8.992 0,-4.552 0,0 m 3.215,0.105 c 0,-5.828 -4.499,-10.059 -10.118,-10.059 -5.731,0 -10.121,4.279 -10.121,9.851 0,5.833 4.497,10.064 10.121,10.064 5.728,0 10.118,-4.285 10.118,-9.856"
             style="fill:#ffffff;fill-opacity:1;fill-rule:nonzero;stroke:none"
             id="path11858"
             inkscape:connector-curvature="0" />
        </g>
        <g
           id="g11860"
           transform="translate(397.0776,515.9622)">
          <path
             d="m 0,0 c 0,5.299 -2.572,8.997 -6.907,8.997 -4.712,0 -6.906,-4.44 -6.906,-8.997 0,-5.297 2.569,-8.992 6.906,-8.992 C -2.197,-8.992 0,-4.552 0,0 m 3.211,0.105 c 0,-5.828 -4.498,-10.059 -10.118,-10.059 -5.73,0 -10.121,4.279 -10.121,9.851 0,5.833 4.499,10.064 10.121,10.064 5.729,0 10.118,-4.285 10.118,-9.856"
             style="fill:#ffffff;fill-opacity:1;fill-rule:nonzero;stroke:none"
             id="path11862"
             inkscape:connector-curvature="0" />
        </g>
        <g
           id="g11864"
           transform="translate(412.5505,512.755)">
          <path
             d="m 0,0 c -1.125,1.605 -1.554,2.192 -2.945,2.192 l -1.5,0 0,-6.533 c 0,-0.535 0.214,-0.798 0.805,-0.907 l 2.194,-0.482 0,-0.7 -8.62,0 0,0.7 1.982,0.482 c 0.587,0.157 0.801,0.372 0.801,0.907 l 0,15.1 c 0,0.537 -0.214,0.749 -0.801,0.909 l -1.982,0.482 0,0.698 8.405,0 c 1.769,0 2.999,-0.162 4.016,-0.534 C 4.444,11.508 5.621,9.525 5.621,7.655 5.621,5.296 3.854,3.312 0.909,2.624 l 0,-0.107 C 1.5,2.243 1.82,1.871 3.908,-0.863 l 2.623,-3.478 c 0.375,-0.535 0.858,-0.854 1.447,-0.963 l 1.927,-0.426 0,-0.7 -4.604,0 c -0.536,0 -0.804,0.164 -1.285,0.808 L 0,0 Z m -4.445,3.104 2.41,0 c 3.641,0 4.445,2.298 4.445,4.497 0,1.66 -0.75,3.213 -2.464,3.96 -0.909,0.377 -1.767,0.377 -2.945,0.377 l -1.446,0 0,-8.834 z"
             style="fill:#ffffff;fill-opacity:1;fill-rule:nonzero;stroke:none"
             id="path11866"
             inkscape:connector-curvature="0" />
        </g>
        <g
           id="g11868"
           transform="translate(374.8025,519.0177)">
          <path
             d="m 0,0 0.804,0 0,-6.427 -0.804,0 -0.482,1.926 c -0.161,0.699 -0.59,0.965 -1.23,0.965 l -4.661,0 0,-7.067 c 0,-0.536 0.215,-0.799 0.804,-0.908 l 2.196,-0.481 0,-0.701 -8.619,0 0,0.701 1.98,0.481 c 0.59,0.158 0.804,0.372 0.804,0.908 l 0,15.099 c 0,0.537 -0.214,0.75 -0.804,0.909 l -1.98,0.482 0,0.699 14.562,0 0,-4.824 -0.804,0 -0.909,2.896 C 0.643,5.405 0.321,5.675 -0.321,5.675 l -6.052,0 0,-8.298 4.661,0 c 0.64,0 1.015,0.263 1.23,0.963 L 0,0 Z"
             style="fill:#ffffff;fill-opacity:1;fill-rule:nonzero;stroke:none"
             id="path11870"
             inkscape:connector-curvature="0" />
        </g>
        <g
           id="g11872"
           transform="translate(429.6296,524.6921)">
          <path
             d="m 0,0 0,-16.595 c 0,-0.7 0.161,-0.864 0.856,-0.864 l 2.357,0 c 2.248,0 3.908,0.327 5.085,1.182 1.982,1.443 2.892,4.067 2.892,7.389 0,3.266 -0.91,6.475 -3.587,8.029 C 6.48,-0.215 5.033,0 2.783,0 L 0,0 Z m -5.622,-18.367 0,0.7 1.981,0.481 c 0.589,0.158 0.802,0.373 0.802,0.909 l 0,15.099 c 0,0.537 -0.213,0.749 -0.802,0.908 l -1.981,0.482 0,0.699 9.049,0 c 2.461,0 4.229,-0.321 5.676,-0.964 3.64,-1.661 5.301,-5.247 5.301,-8.78 0,-3.432 -1.287,-6.641 -4.552,-8.353 -1.499,-0.808 -3.588,-1.181 -6.318,-1.181 l -9.156,0 z"
             style="fill:#ffffff;fill-opacity:1;fill-rule:nonzero;stroke:none"
             id="path11874"
             inkscape:connector-curvature="0" />
        </g>
        <g
           id="g11876"
           transform="translate(346.052,507.025)">
          <path
             d="m 0,0 0,-0.699 -6.799,0 0,0.699 1.71,0.426 c 0.646,0.164 1.072,0.374 1.5,0.855 l 5.891,7.389 -5.891,7.819 c -0.374,0.536 -0.854,0.802 -1.445,0.964 l -1.607,0.428 0,0.697 8.46,0 0,-0.697 L 0,17.508 c -0.645,-0.11 -0.483,-0.376 -0.163,-0.806 l 4.337,-6.211 0.106,0 4.446,6.211 c 0.32,0.43 0.429,0.589 -0.16,0.751 l -1.714,0.428 0,0.697 6.8,0 0,-0.697 -1.714,-0.428 c -0.641,-0.162 -1.07,-0.374 -1.5,-0.856 L 4.871,9.579 11.081,1.389 C 11.457,0.854 11.938,0.59 12.527,0.426 L 14.134,0 l 0,-0.699 -8.459,0 0,0.699 1.82,0.372 C 8.138,0.481 8.03,0.691 7.709,1.127 L 2.997,7.765 2.89,7.765 -1.874,1.172 C -2.197,0.745 -2.304,0.59 -1.715,0.426 L 0,0 Z"
             style="fill:#ffffff;fill-opacity:1;fill-rule:nonzero;stroke:none"
             id="path11878"
             inkscape:connector-curvature="0" />
        </g>
        <g
           id="g11880"
           transform="translate(325.7703,534.6747)">
          <path
             d="m 0,0 c -0.532,-0.532 -1.332,-0.887 -2.445,-0.887 -0.972,0 -1.872,0.305 -2.481,0.914 -0.832,0.832 -0.795,1.892 -0.795,3.027 l 0,5.361 1.094,0 0,-5.76 c 0,-0.728 -0.022,-1.438 0.541,-2.001 0.39,-0.39 0.99,-0.601 1.682,-0.601 0.676,0 1.218,0.233 1.557,0.572 0.626,0.626 0.586,1.309 0.586,2.959 l 0,4.831 1.077,0 0,-4.548 C 0.816,2.139 0.886,0.886 0,0"
             style="fill:#ffffff;fill-opacity:1;fill-rule:nonzero;stroke:none"
             id="path11882"
             inkscape:connector-curvature="0" />
        </g>
        <g
           id="g11884"
           transform="translate(335.4731,533.9585)">
          <path
             d="M 0,0 -4.399,7.485 -4.372,0 l -1.004,0 0,9.131 1.121,0 4.414,-7.526 -0.028,7.526 1.005,0 L 1.136,0 0,0 Z"
             style="fill:#ffffff;fill-opacity:1;fill-rule:nonzero;stroke:none"
             id="path11886"
             inkscape:connector-curvature="0" />
        </g>
        <path
           d="m 340.417,543.09 1.099,0 0,-9.13 -1.099,0 0,9.13 z"
           style="fill:#ffffff;fill-opacity:1;fill-rule:nonzero;stroke:none"
           id="path11888"
           inkscape:connector-curvature="0" />
        <g
           id="g11890"
           transform="translate(348.3467,533.9595)">
          <path
             d="m 0,0 -1.259,0 -3.148,9.13 1.146,0 2.664,-8.06 2.743,8.06 1.063,0 L 0,0 Z"
             style="fill:#ffffff;fill-opacity:1;fill-rule:nonzero;stroke:none"
             id="path11892"
             inkscape:connector-curvature="0" />
        </g>
        <g
           id="g11894"
           transform="translate(354.0407,533.9595)">
          <path
             d="m 0,0 0,9.13 4.963,0 0,-0.911 -3.887,0 0,-3.012 3.649,0 0,-0.888 -3.649,0 0,-3.381 3.996,0 L 5.072,0 0,0 Z"
             style="fill:#ffffff;fill-opacity:1;fill-rule:nonzero;stroke:none"
             id="path11896"
             inkscape:connector-curvature="0" />
        </g>
        <g
           id="g11898"
           transform="translate(367.0524,533.9595)">
          <path
             d="m 0,0 -1.049,2.367 c -0.65,1.455 -0.947,1.604 -2.27,1.604 l -0.637,0 0,-3.971 -1.076,0 0,9.13 1.969,0 c 1.219,0 2.138,0.008 2.857,-0.71 C 0.249,7.964 0.506,7.356 0.506,6.594 0.506,5.96 0.321,5.432 -0.061,5.025 -0.391,4.676 -0.934,4.369 -1.526,4.305 -1.204,4.287 -0.939,4.114 -0.767,3.94 -0.518,3.692 -0.337,3.316 -0.07,2.719 L 1.143,0 0,0 Z m -0.997,7.757 c -0.524,0.524 -1.203,0.5 -1.948,0.5 l -1.011,0 0,-3.412 0.363,0 c 0.922,0 1.915,-0.047 2.541,0.579 0.303,0.303 0.471,0.727 0.471,1.191 0,0.513 -0.201,0.926 -0.416,1.142"
             style="fill:#ffffff;fill-opacity:1;fill-rule:nonzero;stroke:none"
             id="path11900"
             inkscape:connector-curvature="0" />
        </g>
        <path
           d="m 378.862,543.09 1.099,0 0,-9.13 -1.099,0 0,9.13 z"
           style="fill:#ffffff;fill-opacity:1;fill-rule:nonzero;stroke:none"
           id="path11902"
           inkscape:connector-curvature="0" />
        <g
           id="g11904"
           transform="translate(386.2302,542.1794)">
          <path
             d="m 0,0 0,-8.219 -1.099,0 0,8.219 -2.713,0 0,0.911 6.517,0 L 2.705,0 0,0 Z"
             style="fill:#ffffff;fill-opacity:1;fill-rule:nonzero;stroke:none"
             id="path11906"
             inkscape:connector-curvature="0" />
        </g>
        <g
           id="g11908"
           transform="translate(394.1916,537.568)">
          <path
             d="m 0,0 0,-3.608 -1.085,0 0,3.608 -2.899,5.522 1.256,0 2.251,-4.282 2.185,4.282 1.191,0 L 0,0 Z"
             style="fill:#ffffff;fill-opacity:1;fill-rule:nonzero;stroke:none"
             id="path11910"
             inkscape:connector-curvature="0" />
        </g>
        <g
           id="g11912"
           transform="translate(407.3358,533.7869)">
          <path
             d="m 0,0 c -2.362,0 -4.09,1.952 -4.09,4.697 0,2.82 1.708,4.779 4.174,4.779 2.391,0 4.078,-1.939 4.078,-4.696 C 4.162,1.954 2.471,0 0,0 m -0.003,8.543 c -1.79,0 -2.951,-1.511 -2.951,-3.788 0,-2.268 1.293,-3.814 3.009,-3.814 1.908,0 2.971,1.624 2.971,3.886 0,2.227 -1.255,3.716 -3.029,3.716"
             style="fill:#ffffff;fill-opacity:1;fill-rule:nonzero;stroke:none"
             id="path11914"
             inkscape:connector-curvature="0" />
        </g>
        <g
           id="g11916"
           transform="translate(415.5902,542.1794)">
          <path
             d="m 0,0 0,-3.013 3.53,0 0,-0.888 -3.53,0 0,-4.318 -1.09,0 0,9.13 4.85,0 L 3.76,0 0,0 Z"
             style="fill:#ffffff;fill-opacity:1;fill-rule:nonzero;stroke:none"
             id="path11918"
             inkscape:connector-curvature="0" />
        </g>
        <g
           id="g11920"
           transform="translate(370.4092,540.8626)">
          <path
             d="m 0,0 c 0,1.403 1.129,2.402 2.778,2.402 1.67,0 2.47,-0.863 2.552,-0.952 L 4.795,0.802 C 4.59,0.959 3.859,1.497 2.85,1.497 c -1.165,0 -1.811,-0.61 -1.811,-1.435 0,-0.401 0.165,-0.688 0.429,-0.925 0.313,-0.281 0.77,-0.489 1.262,-0.715 0.612,-0.282 1.451,-0.598 2.013,-1.182 0.389,-0.402 0.683,-0.927 0.683,-1.647 0,-1.518 -1.054,-2.675 -2.949,-2.675 -1.615,0 -2.635,0.89 -2.73,0.979 l 0.502,0.741 c 0.26,-0.193 1.274,-0.793 2.201,-0.793 1.374,0 1.888,0.753 1.888,1.66 0,0.421 -0.191,0.76 -0.476,1.033 -0.426,0.41 -1.07,0.685 -1.688,0.967 C 1.56,-2.214 0.969,-1.921 0.551,-1.481 0.276,-1.191 0,-0.718 0,0"
             style="fill:#ffffff;fill-opacity:1;fill-rule:nonzero;stroke:none"
             id="path11922"
             inkscape:connector-curvature="0" />
        </g>
        <g
           id="g11924"
           transform="translate(412.3543,604.8649)">
          <path
             d="m 0,0 c 0,1.146 -0.388,2.072 -1.228,2.566 -0.527,0.309 -1.239,0.41 -2.119,0.41 l -6.393,10e-4 0,-12.91 6.959,0 c 1.603,0 2.546,-0.36 2.629,-1.8 l 0.153,0 L 0,0 Z"
             style="fill:#ffffff;fill-opacity:1;fill-rule:nonzero;stroke:none"
             id="path11926"
             inkscape:connector-curvature="0" />
        </g>
        <g
           id="g11928"
           transform="translate(413.2479,604.8649)">
          <path
             d="m 0,0 c 0,1.146 0.388,2.072 1.228,2.566 0.527,0.309 1.239,0.41 2.119,0.41 l 6.438,10e-4 0,-12.91 -7.003,0 c -1.604,0 -2.547,-0.36 -2.63,-1.8 l -0.153,0 L 0,0 Z"
             style="fill:#ffffff;fill-opacity:1;fill-rule:nonzero;stroke:none"
             id="path11930"
             inkscape:connector-curvature="0" />
        </g>
        <g
           id="g11932"
           transform="translate(424.3689,606.8873)">
          <path
             d="m 0,0 0,-13.647 -9.885,0 -0.113,-0.279 c -0.173,-0.425 -0.48,-0.82 -1.56,-0.82 -1.078,0 -1.386,0.395 -1.558,0.82 l -0.113,0.279 -9.869,0 0,13.647 -0.893,0 0,-0.416 -0.856,0.263 c -0.1,0.337 -0.408,0.585 -0.776,0.585 -0.448,0 -0.814,-0.364 -0.814,-0.813 0,-0.449 0.366,-0.813 0.814,-0.813 0.196,0 0.373,0.072 0.514,0.188 l 1.118,-0.344 0,-1.097 -0.84,0.151 c -0.125,0.29 -0.412,0.494 -0.748,0.494 -0.448,0 -0.812,-0.364 -0.812,-0.813 0,-0.45 0.364,-0.813 0.812,-0.813 0.232,0 0.44,0.098 0.588,0.254 l 1,-0.179 0,-1.119 -0.878,0.039 c -0.143,0.237 -0.398,0.397 -0.695,0.397 -0.448,0 -0.813,-0.365 -0.813,-0.813 0,-0.449 0.365,-0.813 0.813,-0.813 0.27,0 0.509,0.133 0.657,0.338 l 0.916,-0.041 0,-1.216 -0.897,-0.032 c -0.148,0.206 -0.388,0.343 -0.661,0.343 -0.448,0 -0.813,-0.366 -0.813,-0.814 0,-0.448 0.365,-0.812 0.813,-0.812 0.293,0 0.55,0.157 0.692,0.391 l 0.866,0.031 0,-1.121 -0.982,-0.168 c -0.148,0.158 -0.358,0.258 -0.591,0.258 -0.448,0 -0.813,-0.364 -0.813,-0.812 0,-0.449 0.365,-0.814 0.813,-0.814 0.334,0 0.62,0.201 0.745,0.488 l 0.828,0.143 0,-1.099 -1.074,-0.328 c -0.14,0.115 -0.318,0.188 -0.514,0.188 -0.448,0 -0.812,-0.364 -0.812,-0.813 0,-0.449 0.364,-0.812 0.812,-0.812 0.368,0 0.677,0.247 0.776,0.583 l 0.812,0.249 0,-1.064 -1.186,-0.512 c -0.127,0.085 -0.281,0.135 -0.446,0.135 -0.448,0 -0.814,-0.364 -0.814,-0.813 0,-0.45 0.366,-0.813 0.814,-0.813 0.4,0 0.731,0.289 0.798,0.67 l 0.834,0.361 0,-0.971 10.211,0 c 0.415,-0.725 1.133,-1.099 2.222,-1.099 1.09,0 1.808,0.374 2.223,1.099 l 10.227,0 L 0.892,0 0,0 Z"
             style="fill:#ffffff;fill-opacity:1;fill-rule:nonzero;stroke:none"
             id="path11934"
             inkscape:connector-curvature="0" />
        </g>
        <g
           id="g11936"
           transform="translate(406.0932,611.4383)">
          <path
             d="m 0,0 c -2.064,0 -3.737,-0.321 -3.737,-0.717 0,-0.396 1.673,-0.717 3.737,-0.717 2.063,0 3.737,0.321 3.737,0.717 C 3.737,-0.321 2.063,0 0,0"
             style="fill:#ffffff;fill-opacity:1;fill-rule:nonzero;stroke:none"
             id="path11938"
             inkscape:connector-curvature="0" />
        </g>
        <g
           id="g11940"
           transform="translate(411.2388,615.9155)">
          <path
             d="M 0,0 -2.158,-1.516 -2.176,-1.671 -1.664,-1.9 c 0.103,-0.051 0.103,-0.133 0.052,-0.182 l -1.356,-1.143 -0.129,0.01 -0.959,1.416 c -0.067,0.091 -0.043,0.183 0.073,0.202 l 0.645,0.106 0,0.162 -1.672,2.36 -0.274,0 -1.67,-2.36 0,-0.162 0.645,-0.106 c 0.115,-0.019 0.139,-0.111 0.073,-0.202 l -0.961,-1.416 -0.128,-0.01 -1.266,1.143 c -0.051,0.049 -0.05,0.131 0.051,0.182 l 0.513,0.229 -0.018,0.155 -2.247,1.516 -0.183,-0.071 1.319,-4.032 c 0.671,0.301 2.209,0.513 4.009,0.521 1.802,-0.008 3.34,-0.22 4.009,-0.521 L 0.182,-0.071 0,0 Z"
             style="fill:#ffffff;fill-opacity:1;fill-rule:nonzero;stroke:none"
             id="path11942"
             inkscape:connector-curvature="0" />
        </g>
        <g
           id="g11944"
           transform="translate(412.7959,584.4062)">
          <path
             d="m 0,0 c -2.065,0 -3.737,-0.321 -3.737,-0.717 0,-0.396 1.672,-0.717 3.737,-0.717 2.063,0 3.736,0.321 3.736,0.717 C 3.736,-0.321 2.063,0 0,0"
             style="fill:#ffffff;fill-opacity:1;fill-rule:nonzero;stroke:none"
             id="path11946"
             inkscape:connector-curvature="0" />
        </g>
        <g
           id="g11948"
           transform="translate(417.941,588.8834)">
          <path
             d="m 0,0 -2.158,-1.516 -0.018,-0.155 0.512,-0.23 c 0.103,-0.05 0.103,-0.132 0.052,-0.181 l -1.355,-1.144 -0.129,0.011 -0.96,1.416 c -0.066,0.091 -0.043,0.183 0.074,0.202 l 0.644,0.106 0,0.161 -1.671,2.361 -0.275,0 -1.67,-2.361 0,-0.161 0.645,-0.106 c 0.116,-0.019 0.139,-0.111 0.073,-0.202 l -0.96,-1.416 -0.129,-0.011 -1.266,1.144 c -0.051,0.049 -0.05,0.131 0.051,0.181 l 0.512,0.23 -0.017,0.155 -2.247,1.516 -0.183,-0.071 1.319,-4.032 c 0.671,0.301 2.209,0.513 4.01,0.521 1.802,-0.008 3.34,-0.22 4.009,-0.521 L 0.182,-0.071 0,0 Z"
             style="fill:#ffffff;fill-opacity:1;fill-rule:nonzero;stroke:none"
             id="path11950"
             inkscape:connector-curvature="0" />
        </g>
        <g
           id="g11952"
           transform="translate(419.4817,611.4383)">
          <path
             d="m 0,0 c -2.064,0 -3.737,-0.321 -3.737,-0.717 0,-0.396 1.673,-0.717 3.737,-0.717 2.063,0 3.737,0.321 3.737,0.717 C 3.737,-0.321 2.063,0 0,0"
             style="fill:#ffffff;fill-opacity:1;fill-rule:nonzero;stroke:none"
             id="path11954"
             inkscape:connector-curvature="0" />
        </g>
        <g
           id="g11956"
           transform="translate(424.6268,615.9155)">
          <path
             d="M 0,0 -2.158,-1.516 -2.176,-1.671 -1.664,-1.9 c 0.102,-0.051 0.103,-0.133 0.052,-0.182 l -1.355,-1.143 -0.129,0.01 -0.96,1.416 c -0.066,0.091 -0.043,0.183 0.074,0.202 l 0.644,0.106 0,0.162 -1.671,2.36 -0.275,0 -1.669,-2.36 0,-0.162 0.645,-0.106 c 0.115,-0.019 0.138,-0.111 0.072,-0.202 l -0.96,-1.416 -0.129,-0.01 -1.265,1.158 c -0.051,0.05 -0.051,0.131 0.05,0.182 l 0.513,0.214 -0.018,0.155 -2.247,1.516 -0.183,-0.071 1.32,-4.032 c 0.67,0.301 2.208,0.513 4.009,0.521 1.802,-0.008 3.34,-0.22 4.009,-0.521 L 0.182,-0.071 0,0 Z"
             style="fill:#ffffff;fill-opacity:1;fill-rule:nonzero;stroke:none"
             id="path11958"
             inkscape:connector-curvature="0" />
        </g>
        <g
           id="g11960"
           transform="translate(404.126,604.3961)">
          <path
             d="m 0,0 c 0,-0.253 0.062,-0.302 0.199,-0.302 0.245,0 0.493,0.27 0.493,0.774 0,0.612 -0.311,0.784 -0.553,0.784 C 0.073,1.256 0.037,1.246 0.017,1.235 0.003,1.229 0,1.164 0,1.093 L 0,0 Z M 0.139,1.398 C 0.49,1.398 0.78,1.329 0.97,1.145 1.104,1.016 1.216,0.806 1.216,0.561 c 0,-0.708 -0.538,-1.014 -1.197,-1.014 l -0.733,0 0,0.111 c 0.207,0.018 0.23,0.037 0.23,0.345 l 0,0.939 c 0,0.308 -0.023,0.327 -0.208,0.345 l 0,0.111 0.831,0 z"
             style="fill:#0b1f3e;fill-opacity:1;fill-rule:nonzero;stroke:none"
             id="path11962"
             inkscape:connector-curvature="0" />
        </g>
        <g
           id="g11964"
           transform="translate(406.1177,604.9399)">
          <path
             d="m 0,0 c 0,-0.515 0.193,-0.891 0.472,-0.891 0.245,0 0.378,0.236 0.378,0.752 0,0.571 -0.204,0.887 -0.449,0.887 C 0.182,0.748 0,0.498 0,0 m 1.38,-0.049 c 0,-0.609 -0.415,-0.989 -0.961,-0.989 -0.575,0 -0.948,0.418 -0.948,0.941 0,0.461 0.308,0.993 0.988,0.993 0.52,0 0.921,-0.382 0.921,-0.945"
             style="fill:#0b1f3e;fill-opacity:1;fill-rule:nonzero;stroke:none"
             id="path11966"
             inkscape:connector-curvature="0" />
        </g>
        <g
           id="g11968"
           transform="translate(410.0114,605.7938)">
          <path
             d="m 0,0 0,-0.111 c -0.217,-0.02 -0.228,-0.032 -0.219,-0.331 l 0.028,-0.953 c 0.009,-0.316 0.014,-0.324 0.218,-0.345 l 0,-0.11 -0.89,0 0,0.11 c 0.213,0.021 0.222,0.029 0.219,0.345 l -0.008,1.002 -0.012,0 -0.549,-1.426 -0.153,0 -0.521,1.326 -0.007,0 -0.019,-0.632 c -0.009,-0.245 -0.006,-0.38 0.006,-0.469 0.011,-0.105 0.074,-0.131 0.259,-0.146 l 0,-0.11 -0.704,0 0,0.11 c 0.138,0.013 0.191,0.041 0.208,0.146 0.016,0.089 0.032,0.239 0.046,0.498 l 0.031,0.575 c 0.02,0.358 -0.002,0.39 -0.227,0.41 l 0,0.111 0.669,0 0.498,-1.127 L -0.692,0 0,0 Z"
             style="fill:#0b1f3e;fill-opacity:1;fill-rule:nonzero;stroke:none"
             id="path11970"
             inkscape:connector-curvature="0" />
        </g>
        <g
           id="g11972"
           transform="translate(410.9353,604.399)">
          <path
             d="m 0,0 c 0,-0.307 0.022,-0.327 0.219,-0.345 l 0,-0.11 -0.921,0 0,0.11 c 0.195,0.018 0.218,0.038 0.218,0.345 l 0,0.939 c 0,0.308 -0.023,0.327 -0.218,0.345 l 0,0.111 0.921,0 0,-0.111 C 0.022,1.266 0,1.247 0,0.939 L 0,0 Z"
             style="fill:#0b1f3e;fill-opacity:1;fill-rule:nonzero;stroke:none"
             id="path11974"
             inkscape:connector-curvature="0" />
        </g>
        <g
           id="g11976"
           transform="translate(406.3522,600.509)">
          <path
             d="m 0,0 -0.245,0 -1.053,1.343 -0.005,0 0,-0.524 c 0,-0.299 0.012,-0.455 0.023,-0.543 0.015,-0.1 0.091,-0.137 0.279,-0.146 l 0,-0.11 -0.709,0 0,0.11 c 0.125,0.006 0.199,0.046 0.214,0.146 0.01,0.088 0.022,0.244 0.022,0.543 l 0,0.524 c 0,0.211 -0.006,0.248 -0.063,0.328 -0.042,0.059 -0.113,0.078 -0.215,0.087 l 0,0.112 0.628,0 0.948,-1.181 0.005,0 0,0.381 c 0,0.3 -0.011,0.455 -0.022,0.544 -0.015,0.098 -0.091,0.135 -0.279,0.144 l 0,0.112 0.725,0 0,-0.112 C 0.111,1.753 0.037,1.712 0.022,1.614 0.012,1.525 0,1.37 0,1.07 L 0,0 Z"
             style="fill:#0b1f3e;fill-opacity:1;fill-rule:nonzero;stroke:none"
             id="path11978"
             inkscape:connector-curvature="0" />
        </g>
        <g
           id="g11980"
           transform="translate(407.5048,600.509)">
          <path
             d="M 0,0 C -0.196,0.512 -0.464,1.215 -0.566,1.483 -0.66,1.727 -0.717,1.742 -0.853,1.758 l 0,0.112 0.919,0 0,-0.112 -0.097,-0.011 C -0.136,1.736 -0.136,1.71 -0.105,1.61 -0.054,1.451 0.171,0.89 0.277,0.612 0.364,0.853 0.546,1.398 0.592,1.531 0.652,1.705 0.635,1.736 0.508,1.749 l -0.086,0.009 0,0.112 0.687,0 0,-0.112 C 0.948,1.738 0.909,1.724 0.797,1.465 0.78,1.426 0.432,0.581 0.219,0 L 0,0 Z"
             style="fill:#0b1f3e;fill-opacity:1;fill-rule:nonzero;stroke:none"
             id="path11982"
             inkscape:connector-curvature="0" />
        </g>
        <g
           id="g11984"
           transform="translate(408.7887,601.1152)">
          <path
             d="m 0,0 c 0.06,-0.166 0.228,-0.481 0.507,-0.481 0.148,0 0.261,0.097 0.261,0.281 0,0.168 -0.11,0.262 -0.285,0.342 L 0.441,0.163 c -0.234,0.108 -0.498,0.255 -0.498,0.56 0,0.321 0.233,0.583 0.68,0.583 0.088,0 0.18,-0.01 0.261,-0.035 C 0.951,1.256 0.996,1.244 1.034,1.232 1.044,1.121 1.064,0.982 1.096,0.789 L 0.97,0.769 C 0.908,0.957 0.809,1.158 0.582,1.158 0.437,1.158 0.335,1.047 0.335,0.911 0.335,0.769 0.446,0.686 0.629,0.603 L 0.691,0.575 c 0.262,-0.12 0.487,-0.265 0.487,-0.598 0,-0.35 -0.282,-0.605 -0.723,-0.605 -0.113,0 -0.231,0.022 -0.308,0.047 -0.085,0.03 -0.144,0.052 -0.179,0.069 -0.023,0.131 -0.059,0.284 -0.094,0.475 L 0,0 Z"
             style="fill:#0b1f3e;fill-opacity:1;fill-rule:nonzero;stroke:none"
             id="path11986"
             inkscape:connector-curvature="0" />
        </g>
        <g
           id="g11988"
           transform="translate(405.0872,597.5695)">
          <path
             d="m 0,0 c 0,-0.307 0.022,-0.327 0.219,-0.345 l 0,-0.11 -0.922,0 0,0.11 c 0.195,0.018 0.219,0.038 0.219,0.345 l 0,0.939 c 0,0.308 -0.024,0.327 -0.219,0.345 l 0,0.111 0.922,0 0,-0.111 C 0.022,1.266 0,1.247 0,0.939 L 0,0 Z"
             style="fill:#0b1f3e;fill-opacity:1;fill-rule:nonzero;stroke:none"
             id="path11990"
             inkscape:connector-curvature="0" />
        </g>
        <g
           id="g11992"
           transform="translate(406.2141,597.5327)">
          <path
             d="m 0,0 c 0,-0.148 0.006,-0.219 0.056,-0.245 0.046,-0.022 0.112,-0.025 0.2,-0.025 0.091,0 0.214,0.008 0.273,0.082 0.046,0.054 0.093,0.131 0.14,0.282 L 0.791,0.074 C 0.773,-0.034 0.714,-0.33 0.689,-0.418 l -1.413,0 0,0.11 c 0.216,0.018 0.24,0.038 0.24,0.345 l 0,0.939 c 0,0.308 -0.024,0.327 -0.213,0.344 l 0,0.111 0.925,0 0,-0.111 C 0.022,1.303 0,1.284 0,0.976 L 0,0 Z"
             style="fill:#0b1f3e;fill-opacity:1;fill-rule:nonzero;stroke:none"
             id="path11994"
             inkscape:connector-curvature="0" />
        </g>
        <g
           id="g11996"
           transform="translate(407.802,597.5327)">
          <path
             d="m 0,0 c 0,-0.148 0.006,-0.219 0.057,-0.245 0.045,-0.022 0.111,-0.025 0.199,-0.025 0.091,0 0.214,0.008 0.273,0.082 0.046,0.054 0.093,0.131 0.14,0.282 L 0.791,0.074 C 0.774,-0.034 0.714,-0.33 0.689,-0.418 l -1.413,0 0,0.11 c 0.216,0.018 0.24,0.038 0.24,0.345 l 0,0.939 c 0,0.308 -0.024,0.327 -0.213,0.344 l 0,0.111 0.925,0 0,-0.111 C 0.022,1.303 0,1.284 0,0.976 L 0,0 Z"
             style="fill:#0b1f3e;fill-opacity:1;fill-rule:nonzero;stroke:none"
             id="path11998"
             inkscape:connector-curvature="0" />
        </g>
        <g
           id="g12000"
           transform="translate(409.1617,597.0941)">
          <path
             d="M 0,0 C -0.197,0.512 -0.464,1.215 -0.566,1.483 -0.66,1.727 -0.717,1.742 -0.854,1.758 l 0,0.111 0.919,0 0,-0.111 -0.097,-0.011 C -0.136,1.736 -0.136,1.71 -0.105,1.611 -0.054,1.451 0.17,0.891 0.276,0.612 0.364,0.854 0.546,1.398 0.592,1.531 0.652,1.705 0.634,1.736 0.507,1.75 l -0.086,0.008 0,0.111 0.688,0 0,-0.111 C 0.948,1.739 0.908,1.724 0.797,1.465 0.78,1.426 0.433,0.581 0.219,0 L 0,0 Z"
             style="fill:#0b1f3e;fill-opacity:1;fill-rule:nonzero;stroke:none"
             id="path12002"
             inkscape:connector-curvature="0" />
        </g>
        <g
           id="g12004"
           transform="translate(416.8057,605.7938)">
          <path
             d="m 0,0 0,-0.111 c -0.217,-0.02 -0.228,-0.032 -0.219,-0.331 l 0.028,-0.953 c 0.009,-0.316 0.014,-0.324 0.218,-0.345 l 0,-0.11 -0.89,0 0,0.11 c 0.213,0.021 0.222,0.029 0.22,0.345 l -0.009,1.002 -0.012,0 -0.549,-1.426 -0.153,0 -0.521,1.326 -0.007,0 -0.019,-0.632 c -0.009,-0.245 -0.006,-0.38 0.006,-0.469 0.011,-0.105 0.074,-0.131 0.259,-0.146 l 0,-0.11 -0.704,0 0,0.11 c 0.138,0.013 0.191,0.041 0.208,0.146 0.016,0.089 0.032,0.239 0.046,0.498 l 0.031,0.575 c 0.02,0.358 -0.002,0.39 -0.227,0.41 l 0,0.111 0.668,0 0.499,-1.127 L -0.692,0 0,0 Z"
             style="fill:#0b1f3e;fill-opacity:1;fill-rule:nonzero;stroke:none"
             id="path12006"
             inkscape:connector-curvature="0" />
        </g>
        <g
           id="g12008"
           transform="translate(417.7295,604.399)">
          <path
             d="m 0,0 c 0,-0.307 0.022,-0.327 0.219,-0.345 l 0,-0.11 -0.921,0 0,0.11 c 0.195,0.018 0.218,0.038 0.218,0.345 l 0,0.939 c 0,0.308 -0.023,0.327 -0.218,0.345 l 0,0.111 0.921,0 0,-0.111 C 0.022,1.266 0,1.247 0,0.939 L 0,0 Z"
             style="fill:#0b1f3e;fill-opacity:1;fill-rule:nonzero;stroke:none"
             id="path12010"
             inkscape:connector-curvature="0" />
        </g>
        <g
           id="g12012"
           transform="translate(419.8469,603.9237)">
          <path
             d="m 0,0 -0.245,0 -1.053,1.343 -0.005,0 0,-0.524 c 0,-0.298 0.011,-0.455 0.023,-0.542 0.014,-0.101 0.09,-0.138 0.279,-0.147 l 0,-0.11 -0.709,0 0,0.11 c 0.125,0.006 0.199,0.046 0.213,0.147 0.011,0.087 0.023,0.244 0.023,0.542 l 0,0.524 c 0,0.211 -0.006,0.248 -0.063,0.328 -0.042,0.059 -0.114,0.079 -0.215,0.087 l 0,0.112 0.628,0 0.948,-1.181 0.006,0 0,0.382 c 0,0.299 -0.012,0.454 -0.023,0.543 -0.014,0.099 -0.091,0.136 -0.279,0.144 l 0,0.112 0.725,0 0,-0.112 C 0.111,1.753 0.036,1.713 0.022,1.614 0.012,1.525 0,1.37 0,1.071 L 0,0 Z"
             style="fill:#0b1f3e;fill-opacity:1;fill-rule:nonzero;stroke:none"
             id="path12014"
             inkscape:connector-curvature="0" />
        </g>
        <g
           id="g12016"
           transform="translate(420.6751,604.6723)">
          <path
             d="m 0,0 0.364,0 -0.18,0.544 -0.008,0 L 0,0 Z m 0.361,-0.618 0.085,0.012 c 0.106,0.014 0.111,0.042 0.074,0.145 l -0.102,0.29 -0.467,0 -0.085,-0.273 c -0.037,-0.122 -0.037,-0.151 0.093,-0.165 l 0.084,-0.009 0,-0.111 -0.664,0 0,0.111 c 0.146,0.02 0.189,0.032 0.282,0.271 l 0.57,1.471 0.196,0.04 0.194,-0.538 C 0.743,0.287 0.865,-0.049 0.973,-0.339 1.064,-0.586 1.115,-0.6 1.256,-0.618 l 0,-0.111 -0.895,0 0,0.111 z"
             style="fill:#0b1f3e;fill-opacity:1;fill-rule:nonzero;stroke:none"
             id="path12018"
             inkscape:connector-curvature="0" />
        </g>
        <g
           id="g12020"
           transform="translate(416.7826,600.9843)">
          <path
             d="m 0,0 c 0,-0.307 0.022,-0.327 0.261,-0.345 l 0,-0.11 -0.995,0 0,0.11 c 0.227,0.018 0.25,0.038 0.25,0.345 l 0,1.247 -0.048,0 C -0.723,1.247 -0.8,1.212 -0.846,1.16 -0.879,1.118 -0.914,1.044 -0.951,0.885 l -0.12,0 c 0.012,0.239 0.029,0.435 0.036,0.58 l 0.087,0 C -0.905,1.4 -0.877,1.395 -0.8,1.395 l 1.135,0 c 0.074,0 0.089,0.016 0.135,0.07 l 0.087,0 C 0.561,1.345 0.575,1.104 0.588,0.893 L 0.464,0.885 C 0.421,1.055 0.39,1.129 0.348,1.178 0.299,1.229 0.205,1.247 0.068,1.247 L 0,1.247 0,0 Z"
             style="fill:#0b1f3e;fill-opacity:1;fill-rule:nonzero;stroke:none"
             id="path12022"
             inkscape:connector-curvature="0" />
        </g>
        <g
           id="g12024"
           transform="translate(418.2726,600.9843)">
          <path
             d="m 0,0 c 0,-0.307 0.022,-0.327 0.219,-0.345 l 0,-0.11 -0.921,0 0,0.11 c 0.195,0.018 0.218,0.038 0.218,0.345 l 0,0.939 c 0,0.308 -0.023,0.327 -0.218,0.345 l 0,0.111 0.921,0 0,-0.111 C 0.022,1.266 0,1.247 0,0.939 L 0,0 Z"
             style="fill:#0b1f3e;fill-opacity:1;fill-rule:nonzero;stroke:none"
             id="path12026"
             inkscape:connector-curvature="0" />
        </g>
        <g
           id="g12028"
           transform="translate(419.2588,601.5253)">
          <path
             d="m 0,0 c 0,-0.515 0.193,-0.891 0.472,-0.891 0.245,0 0.378,0.236 0.378,0.752 C 0.85,0.432 0.646,0.748 0.4,0.748 0.182,0.748 0,0.498 0,0 m 1.38,-0.049 c 0,-0.61 -0.416,-0.989 -0.961,-0.989 -0.575,0 -0.948,0.418 -0.948,0.941 0,0.46 0.307,0.993 0.987,0.993 0.521,0 0.922,-0.382 0.922,-0.945"
             style="fill:#0b1f3e;fill-opacity:1;fill-rule:nonzero;stroke:none"
             id="path12030"
             inkscape:connector-curvature="0" />
        </g>
        <g
           id="g12032"
           transform="translate(417.6229,598.964)">
          <path
             d="m 0,0 0,-0.111 c -0.217,-0.021 -0.228,-0.032 -0.219,-0.33 l 0.028,-0.954 c 0.009,-0.316 0.014,-0.324 0.219,-0.344 l 0,-0.111 -0.891,0 0,0.111 c 0.213,0.02 0.222,0.028 0.219,0.344 l -0.008,1.002 -0.011,0 -0.55,-1.426 -0.153,0 -0.521,1.327 -0.007,0 -0.019,-0.632 c -0.009,-0.246 -0.006,-0.381 0.006,-0.47 0.011,-0.105 0.074,-0.131 0.259,-0.145 l 0,-0.111 -0.704,0 0,0.111 c 0.138,0.012 0.191,0.04 0.208,0.145 0.016,0.089 0.032,0.24 0.046,0.498 l 0.031,0.576 c 0.02,0.357 -0.002,0.388 -0.227,0.409 l 0,0.111 0.669,0 0.498,-1.127 L -0.692,0 0,0 Z"
             style="fill:#0b1f3e;fill-opacity:1;fill-rule:nonzero;stroke:none"
             id="path12034"
             inkscape:connector-curvature="0" />
        </g>
        <g
           id="g12036"
           transform="translate(418.0628,598.5088)">
          <path
             d="m 0,0 c 0,0.307 -0.022,0.327 -0.213,0.344 l 0,0.111 1.349,0 C 1.138,0.407 1.153,0.199 1.167,-0.015 L 1.042,-0.023 C 1.013,0.117 0.982,0.196 0.937,0.242 0.891,0.29 0.797,0.307 0.646,0.307 l -0.048,0 c -0.108,0 -0.114,0 -0.114,-0.1 l 0,-0.549 0.142,0 c 0.245,0 0.254,0.018 0.283,0.234 l 0.125,0 0,-0.672 -0.125,0 C 0.88,-0.529 0.871,-0.511 0.626,-0.511 l -0.142,0 0,-0.466 c 0,-0.147 0.006,-0.218 0.057,-0.244 0.046,-0.023 0.111,-0.026 0.199,-0.026 0.114,0 0.239,0.018 0.302,0.085 0.048,0.053 0.096,0.157 0.14,0.294 l 0.125,-0.02 c -0.014,-0.14 -0.075,-0.43 -0.1,-0.507 l -1.449,0 0,0.111 C -0.022,-1.266 0,-1.247 0,-0.939 L 0,0 Z"
             style="fill:#0b1f3e;fill-opacity:1;fill-rule:nonzero;stroke:none"
             id="path12038"
             inkscape:connector-curvature="0" />
        </g>
        <g
           id="g12040"
           transform="translate(420.007,597.8428)">
          <path
             d="m 0,0 0.364,0 -0.18,0.544 -0.008,0 L 0,0 Z m 0.361,-0.619 0.085,0.013 c 0.106,0.014 0.111,0.042 0.074,0.145 l -0.102,0.29 -0.466,0 -0.086,-0.273 c -0.037,-0.122 -0.037,-0.151 0.093,-0.166 l 0.084,-0.009 0,-0.11 -0.664,0 0,0.11 c 0.146,0.021 0.189,0.033 0.282,0.272 l 0.57,1.471 0.196,0.04 0.194,-0.539 C 0.743,0.287 0.865,-0.049 0.973,-0.339 1.064,-0.586 1.115,-0.6 1.256,-0.619 l 0,-0.11 -0.895,0 0,0.11 z"
             style="fill:#0b1f3e;fill-opacity:1;fill-rule:nonzero;stroke:none"
             id="path12042"
             inkscape:connector-curvature="0" />
        </g>
        <g
           id="g12044"
           transform="translate(410.2291,574.2195)">
          <path
             d="m 0,0 c 0,-0.411 -0.333,-0.744 -0.744,-0.744 -0.411,0 -0.744,0.333 -0.744,0.744 0,0.411 0.333,0.744 0.744,0.744 C -0.333,0.744 0,0.411 0,0"
             style="fill:#ffffff;fill-opacity:1;fill-rule:nonzero;stroke:none"
             id="path12046"
             inkscape:connector-curvature="0" />
        </g>
        <g
           id="g12048"
           transform="translate(417.7762,572.9814)">
          <path
             d="m 0,0 c 0,-0.411 -0.333,-0.744 -0.744,-0.744 -0.411,0 -0.743,0.333 -0.743,0.744 0,0.411 0.332,0.743 0.743,0.743 C -0.333,0.743 0,0.411 0,0"
             style="fill:#ffffff;fill-opacity:1;fill-rule:nonzero;stroke:none"
             id="path12050"
             inkscape:connector-curvature="0" />
        </g>
        <g
           id="g12052"
           transform="translate(413.5105,626.7663)">
          <path
             d="m 0,0 c 0,-0.411 -0.333,-0.743 -0.744,-0.743 -0.411,0 -0.744,0.332 -0.744,0.743 0,0.411 0.333,0.744 0.744,0.744 C -0.333,0.744 0,0.411 0,0"
             style="fill:#ffffff;fill-opacity:1;fill-rule:nonzero;stroke:none"
             id="path12054"
             inkscape:connector-curvature="0" />
        </g>
        <g
           id="g12056"
           transform="translate(431.2212,619.7999)">
          <path
             d="m 0,0 c -0.018,-0.411 -0.364,-0.73 -0.775,-0.712 -0.411,0.016 -0.73,0.364 -0.712,0.775 0.017,0.41 0.364,0.729 0.774,0.711 C -0.302,0.757 0.017,0.41 0,0"
             style="fill:#ffffff;fill-opacity:1;fill-rule:nonzero;stroke:none"
             id="path12058"
             inkscape:connector-curvature="0" />
        </g>
        <g
           id="g12060"
           transform="translate(393.8965,587.8538)">
          <path
             d="M 0,0 C 0.285,-0.411 0.431,-0.852 0.43,-1.308 0.429,-1.827 0.254,-2.249 -0.676,-2.894 l -2.688,-1.915 -0.494,0.712 c 0,0 2.752,1.96 2.798,1.99 0.475,0.329 0.677,0.569 0.678,0.945 0,0.238 -0.088,0.498 -0.259,0.746 -0.27,0.388 -0.615,0.51 -0.92,0.511 -0.275,0.001 -0.573,-0.192 -1.102,-0.562 l -2.527,-1.714 -0.485,0.698 2.404,1.63 c 0.669,0.47 1.202,0.792 1.697,0.791 C -0.851,0.937 -0.324,0.467 0,0"
             style="fill:#ffffff;fill-opacity:1;fill-rule:nonzero;stroke:none"
             id="path12062"
             inkscape:connector-curvature="0" />
        </g>
        <g
           id="g12064"
           transform="translate(385.3088,593.1006)">
          <path
             d="M 0,0 5.113,1.792 5.396,1.018 2.47,-2.556 6.167,-1.093 6.442,-1.847 1.389,-3.789 1.106,-3.014 4.045,0.564 0.276,-0.755 0,0 Z"
             style="fill:#ffffff;fill-opacity:1;fill-rule:nonzero;stroke:none"
             id="path12066"
             inkscape:connector-curvature="0" />
        </g>
        <g
           id="g12068"
           transform="translate(384.5439,597.1713)">
          <path
             d="M 0,0 5.352,0.794 5.478,-0.063 0.127,-0.856 0,0 Z"
             style="fill:#ffffff;fill-opacity:1;fill-rule:nonzero;stroke:none"
             id="path12070"
             inkscape:connector-curvature="0" />
        </g>
        <g
           id="g12072"
           transform="translate(384.3854,603.6236)">
          <path
             d="M 0,0 0.02,0.898 5.361,-1.272 5.323,-2.164 -0.161,-3.799 -0.155,-2.9 4.292,-1.653 0,0 Z"
             style="fill:#ffffff;fill-opacity:1;fill-rule:nonzero;stroke:none"
             id="path12074"
             inkscape:connector-curvature="0" />
        </g>
        <g
           id="g12076"
           transform="translate(388.3067,614.0883)">
          <path
             d="M 0,0 C 0.318,0.578 0.543,0.796 0.879,0.794 1.002,0.794 1.16,0.763 1.317,0.676 1.52,0.564 1.674,0.376 1.733,0.175 1.755,0.097 1.765,0.02 1.764,-0.057 1.762,-0.379 1.583,-0.702 1.395,-1.04 L 1.284,-1.241 -0.241,-0.423 0,0 Z M 0.962,1.639 C 0.198,1.637 -0.156,1.2 -0.644,0.319 l -0.635,-1.138 4.765,-2.586 0.412,0.744 -1.981,1.08 0.116,0.213 c 0.334,0.604 0.449,0.695 1.298,0.624 L 4.875,-0.881 5.317,-0.082 3.538,0.07 C 3.18,0.103 2.898,0.13 2.67,0.063 2.594,0.041 2.501,-0.006 2.414,-0.068 2.434,0.029 2.471,0.124 2.472,0.221 2.473,0.374 2.452,0.525 2.406,0.662 2.302,0.98 2.076,1.237 1.733,1.427 1.477,1.568 1.221,1.64 0.962,1.639"
             style="fill:#ffffff;fill-opacity:1;fill-rule:nonzero;stroke:none"
             id="path12078"
             inkscape:connector-curvature="0" />
        </g>
        <g
           id="g12080"
           transform="translate(395.1898,623.3737)">
          <path
             d="M 0,0 0.689,0.525 3.972,-3.775 3.284,-4.3 0,0 Z"
             style="fill:#ffffff;fill-opacity:1;fill-rule:nonzero;stroke:none"
             id="path12082"
             inkscape:connector-curvature="0" />
        </g>
        <g
           id="g12084"
           transform="translate(398.1611,625.4829)">
          <path
             d="M 0,0 3.499,1.822 3.842,1.165 2.48,0.456 4.636,-3.687 3.868,-4.086 1.711,0.056 0.342,-0.658 0,0 Z"
             style="fill:#ffffff;fill-opacity:1;fill-rule:nonzero;stroke:none"
             id="path12086"
             inkscape:connector-curvature="0" />
        </g>
        <g
           id="g12088"
           transform="translate(406.8916,628.9503)">
          <path
             d="M 0,0 0.913,0.254 0.177,-3.365 0.772,-5.42 -0.053,-5.658 -0.634,-3.619 -3.203,-0.938 -2.314,-0.68 -0.465,-2.606 0,0 Z"
             style="fill:#ffffff;fill-opacity:1;fill-rule:nonzero;stroke:none"
             id="path12090"
             inkscape:connector-curvature="0" />
        </g>
        <g
           id="g12092"
           transform="translate(423.3994,621.5543)">
          <path
             d="M 0,0 2.747,4.661 5.332,3.139 4.956,2.5 3.11,3.589 2.35,2.299 4.088,1.275 3.721,0.652 1.983,1.674 0.74,-0.436 0,0 Z"
             style="fill:#ffffff;fill-opacity:1;fill-rule:nonzero;stroke:none"
             id="path12094"
             inkscape:connector-curvature="0" />
        </g>
        <g
           id="g12096"
           transform="translate(437.3013,609.5023)">
          <path
             d="m 0,0 1.97,2.357 0.306,-0.933 -1.467,-1.678 2.18,-0.489 0.288,-0.88 -2.981,0.721 -2.117,-2.538 -0.302,0.918 1.599,1.863 -2.39,0.545 L -3.205,0.773 0,0 Z"
             style="fill:#ffffff;fill-opacity:1;fill-rule:nonzero;stroke:none"
             id="path12098"
             inkscape:connector-curvature="0" />
        </g>
        <g
           id="g12100"
           transform="translate(435.7541,604.1863)">
          <path
             d="M 0,0 5.394,0.439 5.638,-2.551 4.899,-2.611 4.725,-0.476 3.233,-0.598 3.397,-2.608 2.676,-2.666 2.511,-0.657 0.07,-0.856 0,0 Z"
             style="fill:#ffffff;fill-opacity:1;fill-rule:nonzero;stroke:none"
             id="path12102"
             inkscape:connector-curvature="0" />
        </g>
        <g
           id="g12104"
           transform="translate(438.5648,595.24)">
          <path
             d="m 0,0 c -1.053,0 -2.284,0.575 -2.284,1.636 0,0.385 0.133,0.902 0.609,1.247 0.321,0.234 0.739,0.359 1.206,0.359 0.537,0 1.504,-0.151 2.013,-0.852 C 1.718,2.149 1.808,1.869 1.806,1.57 1.806,1.155 1.637,0.663 1.193,0.342 0.879,0.114 0.466,0 0,0 m -0.426,4.123 c -0.625,0 -1.2,-0.169 -1.654,-0.499 -0.817,-0.592 -0.965,-1.442 -0.965,-1.939 0,-1.829 1.719,-2.561 3.009,-2.561 0.62,-0.001 1.187,0.168 1.634,0.493 0.912,0.659 0.962,1.651 0.962,1.971 0,1.595 -1.468,2.535 -2.986,2.535"
             style="fill:#ffffff;fill-opacity:1;fill-rule:nonzero;stroke:none"
             id="path12106"
             inkscape:connector-curvature="0" />
        </g>
        <g
           id="g12108"
           transform="translate(434.1563,612.9647)">
          <path
             d="m 0,0 c -0.485,0 -0.924,0.204 -1.226,0.681 -0.154,0.243 -0.229,0.505 -0.23,0.77 -0.003,0.612 0.383,1.239 1.094,1.69 0.469,0.299 0.931,0.445 1.343,0.444 0.521,0 0.946,-0.23 1.229,-0.677 C 2.378,2.644 2.454,2.364 2.454,2.084 2.454,1.486 2.076,0.9 1.39,0.466 0.909,0.162 0.426,0 0,0 m 0.843,4.408 c -0.548,0 -1.13,-0.174 -1.691,-0.53 -1.04,-0.66 -1.419,-1.604 -1.419,-2.293 0,-0.446 0.123,-0.885 0.378,-1.287 0.577,-0.91 1.443,-1.133 2.028,-1.13 0.558,0.003 1.148,0.187 1.704,0.541 0.669,0.424 1.413,1.212 1.413,2.28 0,0.443 -0.126,0.88 -0.381,1.284 C 2.401,4.019 1.659,4.408 0.843,4.408"
             style="fill:#ffffff;fill-opacity:1;fill-rule:nonzero;stroke:none"
             id="path12110"
             inkscape:connector-curvature="0" />
        </g>
        <g
           id="g12112"
           transform="translate(419.9599,623.6902)">
          <path
             d="m 0,0 c -0.392,0 -0.958,0.191 -1.273,0.77 -0.153,0.278 -0.221,0.618 -0.221,0.97 0,0.968 0.645,2.328 1.824,2.328 0.662,0 1.493,-0.493 1.493,-1.717 C 1.823,1.572 1.274,0 0,0 m 0.279,4.826 c -1.128,0 -2.109,-0.759 -2.506,-2.108 -0.087,-0.3 -0.143,-0.597 -0.143,-0.885 0,-0.54 0.091,-0.968 0.312,-1.371 0.5,-0.917 1.417,-1.229 2.113,-1.229 0.393,0 0.772,0.091 1.12,0.28 0.912,0.5 1.515,1.658 1.515,2.766 0,0.482 -0.093,0.936 -0.306,1.323 C 1.943,4.4 1.13,4.826 0.279,4.826"
             style="fill:#ffffff;fill-opacity:1;fill-rule:nonzero;stroke:none"
             id="path12114"
             inkscape:connector-curvature="0" />
        </g>
        <g
           id="g12116"
           transform="translate(390.2718,608.8945)">
          <path
             d="m 0,0 0.727,-0.206 -0.821,-2.971 -5.235,1.435 0.894,3.006 0.711,-0.2 -0.657,-2.167 1.444,-0.395 L -2.38,0.469 -1.683,0.271 -2.238,-1.69 -0.606,-2.138 0,0 Z"
             style="fill:#ffffff;fill-opacity:1;fill-rule:nonzero;stroke:none"
             id="path12118"
             inkscape:connector-curvature="0" />
        </g>
        <g
           id="g12120"
           transform="translate(391.6447,620.1978)">
          <path
             d="M 0,0 C 0.752,0.843 1.521,0.784 1.521,0.784 L 1.652,0.071 c 0,0 -0.593,-0.019 -1.058,-0.54 -0.201,-0.226 -0.303,-0.462 -0.303,-0.676 0,-0.174 0.068,-0.327 0.206,-0.451 0.375,-0.333 1.015,0.038 1.416,0.198 0.308,0.129 0.746,0.306 1.185,0.306 0.326,0 0.664,-0.092 0.973,-0.368 0.36,-0.322 0.54,-0.726 0.54,-1.15 0,-0.459 -0.178,-0.868 -0.537,-1.27 C 3.383,-4.653 2.456,-4.737 2.456,-4.737 l -0.185,0.724 c 0.547,0.125 0.961,0.337 1.211,0.618 0.198,0.221 0.296,0.468 0.296,0.686 0,0.204 -0.086,0.395 -0.253,0.544 -0.135,0.12 -0.3,0.163 -0.479,0.16 -0.348,0 -0.764,-0.199 -1.108,-0.342 -0.656,-0.271 -1.35,-0.491 -1.97,0.064 -0.316,0.282 -0.484,0.637 -0.484,1.031 0,0.416 0.164,0.859 0.516,1.252"
             style="fill:#ffffff;fill-opacity:1;fill-rule:nonzero;stroke:none"
             id="path12122"
             inkscape:connector-curvature="0" />
        </g>
        <g
           id="g12124"
           transform="translate(437.5115,589.153)">
          <path
             d="m 0,0 c -0.245,-0.001 -0.659,0.14 -0.815,0.544 -0.039,0.102 -0.056,0.206 -0.055,0.31 0.003,0.297 0.144,0.605 0.287,0.928 L -0.49,1.991 1.07,1.29 0.897,0.872 C 0.606,0.211 0.417,0.001 0,0 M -3.194,3.208 -1.149,2.283 -1.251,2.052 C -1.528,1.423 -1.636,1.321 -2.489,1.317 L -4.038,1.316 -4.407,0.481 -2.621,0.487 c 0.361,-0.001 0.643,-0.001 0.863,0.084 0.071,0.028 0.153,0.073 0.228,0.133 -0.005,-0.046 -0.021,-0.09 -0.021,-0.137 -0.002,-0.199 0.035,-0.396 0.109,-0.568 0.245,-0.572 0.911,-0.851 1.399,-0.851 0.861,0.002 1.19,0.517 1.608,1.464 0.016,0.035 0.503,1.159 0.503,1.159 L -2.851,3.987 -3.194,3.208 Z"
             style="fill:#ffffff;fill-opacity:1;fill-rule:nonzero;stroke:none"
             id="path12126"
             inkscape:connector-curvature="0" />
        </g>
        <g
           id="g12128"
           transform="translate(433.3961,583.1699)">
          <path
             d="m 0,0 c -0.431,0 -0.833,0.166 -1.254,0.501 -0.425,0.341 -0.877,0.871 -0.877,1.547 0,0.469 0.255,0.917 0.647,1.409 L -1.125,3.905 1.965,1.439 1.729,1.145 C 1.155,0.425 0.763,0 0,0 m -1.928,4.073 c -0.561,-0.702 -0.987,-1.33 -0.987,-2.141 0,-0.689 0.313,-1.472 1.104,-2.104 0.524,-0.418 1.118,-0.645 1.729,-0.645 0.753,0 1.356,0.225 2.294,1.4 l 0.854,1.075 -4.228,3.375 -0.766,-0.96 z"
             style="fill:#ffffff;fill-opacity:1;fill-rule:nonzero;stroke:none"
             id="path12130"
             inkscape:connector-curvature="0" />
        </g>
        <g
           id="g12132"
           transform="translate(430.9648,576.9517)">
          <path
             d="m 0,0 c -5.035,-1.782 -9.735,-1.659 -13.744,-0.764 0.132,1.791 0.871,3.705 2.005,4.06 8.83,2.739 15.261,10.971 15.261,20.675 0,11.933 -9.727,21.642 -21.684,21.642 -11.956,0 -21.684,-9.709 -21.684,-21.642 0,-6.64 3.102,-12.946 8.321,-17.035 -1.239,-0.545 -2.297,-1.426 -3.06,-2.523 -0.397,0.269 -0.778,0.548 -1.131,0.838 l -0.198,-0.197 c 0.238,-0.286 0.603,-0.662 1.043,-1.084 -0.643,-1.081 -1.015,-2.339 -1.015,-3.686 0,-0.209 0.015,-0.415 0.031,-0.62 -7.768,5.661 -12.383,14.661 -12.383,24.307 0,16.583 13.492,30.074 30.076,30.074 16.585,0 30.077,-13.491 30.077,-30.074 C 11.915,14.471 7.572,5.744 0,0 m -17.448,-7.099 c -4.157,0 -9.343,1.412 -12.907,3.514 -1.079,0.638 -2.367,1.823 -2.367,3.848 0,0.547 0.107,1.068 0.297,1.548 1.33,-1.1 2.706,-2.131 3.568,-2.602 0.198,-0.109 0.312,-0.162 0.544,-0.162 0.553,0 1.001,0.45 1.001,1.007 0,0.423 -0.229,0.768 -0.611,0.935 -0.736,0.321 -2.279,0.959 -3.939,1.82 0.767,1.014 1.978,1.673 3.34,1.673 0.623,0 1.223,-0.134 1.783,-0.398 L -25.6,3.421 c 3.621,-2.213 12.939,-7.885 24.189,-4.768 -4.271,-3.854 -9.53,-5.752 -16.037,-5.752 m 3.561,-2.532 c -1.142,0 -2.08,-0.808 -2.08,-2.049 0,-1.215 0.95,-2.051 2.08,-2.051 0.173,0 0.336,0.029 0.496,0.071 -0.24,-1.719 -2.24,-3.643 -4.823,-4.507 -2.561,0.856 -4.561,2.796 -4.826,4.505 0.157,-0.041 0.321,-0.069 0.491,-0.069 1.233,0 2.08,0.863 2.08,2.051 0,1.131 -0.888,2.02 -2.035,2.044 0.351,0.64 0.686,1.32 0.933,2.049 1.422,-0.247 2.821,-0.382 4.123,-0.382 1.067,0 2.103,0.057 3.114,0.16 0.135,-0.587 0.334,-1.199 0.568,-1.833 -0.04,0.003 -0.079,0.011 -0.121,0.011 M -28.588,6.685 c 2.138,0 4.139,-1.097 5.311,-2.854 -1.026,0.261 -2.035,0.6 -3.019,1.02 L -26.3,4.844 -26.332,4.863 c -0.688,0.324 -1.424,0.489 -2.19,0.489 -1.703,0 -3.211,-0.836 -4.142,-2.113 -0.391,0.217 -0.784,0.446 -1.168,0.684 1.154,1.666 3.072,2.762 5.244,2.762 m 8.464,-4.266 c -0.264,-0.197 -0.477,-0.432 -0.628,-0.692 -0.784,0.381 -1.77,0.872 -2.414,1.233 0.913,-0.202 2.104,-0.459 3.042,-0.541 m 6.582,0.408 c -0.621,-0.889 -0.993,-2.124 -1.103,-3.374 -1.965,0.506 -3.749,1.187 -5.304,1.896 0.295,0.573 1.141,0.978 1.787,0.978 1.587,0 3.131,0.175 4.62,0.5 m -4.62,0.37 c -1.328,0 -2.636,0.128 -3.917,0.372 -1.237,2.426 -3.771,3.986 -6.509,3.986 -0.673,0 -1.321,-0.098 -1.94,-0.27 -5.261,3.911 -8.401,10.13 -8.401,16.686 0,11.453 9.316,20.772 20.767,20.772 11.45,0 20.768,-9.319 20.768,-20.772 0,-11.455 -9.318,-20.774 -20.768,-20.774 m -10.426,-9.311 c -3.518,0 -6.381,2.87 -6.381,6.398 0,1.106 0.281,2.147 0.775,3.056 0.328,-0.299 0.68,-0.609 1.044,-0.921 -0.309,-0.656 -0.489,-1.385 -0.489,-2.156 0,-1.92 0.97,-3.506 2.801,-4.586 1.051,-0.621 2.242,-1.18 3.504,-1.668 -0.41,-0.082 -0.829,-0.123 -1.254,-0.123 m 41.42,30.085 c 0,17.062 -13.905,30.944 -30.994,30.944 -17.089,0 -30.993,-13.882 -30.993,-30.944 0,-10.237 5.055,-19.778 13.524,-25.561 0.833,-3.101 3.671,-5.394 7.043,-5.394 0.912,0 1.796,0.172 2.636,0.497 1.135,-0.375 2.307,-0.684 3.475,-0.925 -0.329,-0.94 -0.81,-1.831 -1.267,-2.601 0,0 0.01,0.002 0.025,0.005 -0.008,-0.006 -0.018,-0.01 -0.027,-0.016 l 0.646,-0.646 c 0.166,0.09 0.351,0.146 0.551,0.146 0.639,0 1.158,-0.518 1.158,-1.156 0,-0.638 -0.519,-1.159 -1.158,-1.159 -0.556,0 -1.045,0.358 -1.301,0.74 0,0 -0.151,-0.521 -0.151,-1.207 -0.004,-2.223 2.422,-4.762 5.787,-5.833 3.363,1.046 5.789,3.604 5.787,5.829 0,0.766 -0.151,1.211 -0.151,1.211 -0.258,-0.311 -0.677,-0.74 -1.309,-0.74 -0.638,0 -1.157,0.521 -1.157,1.159 0,0.638 0.519,1.156 1.157,1.156 0.223,0 0.431,-0.066 0.608,-0.177 l 0.626,0.627 c 0.015,-0.004 0.024,-0.007 0.024,-0.007 -0.354,0.847 -0.612,1.627 -0.788,2.374 5.573,0.751 10.274,3.109 14.013,7.041 l -0.004,0.004 c 7.779,5.909 12.24,14.876 12.24,24.633"
             style="fill:#ffffff;fill-opacity:1;fill-rule:nonzero;stroke:none"
             id="path12134"
             inkscape:connector-curvature="0" />
        </g>
      </g>
    </g>
  </g>
</svg>
